<?xml version="1.0" encoding="utf-8"?>
<!-- Generator: Adobe Illustrator 24.3.0, SVG Export Plug-In . SVG Version: 6.00 Build 0)  -->
<svg version="1.1" id="Layer_1" xmlns="http://www.w3.org/2000/svg" xmlns:xlink="http://www.w3.org/1999/xlink" x="0px" y="0px"
	 viewBox="0 0 1289.3 191.3" style="enable-background:new 0 0 1289.3 191.3;" xml:space="preserve">
<style type="text/css">
	.st0{fill:#05141F;}
</style>
<g>
	<path class="st0" d="M295.1,134.7c0,0.8,0.2,1.3,0.7,1.3c0.3,0,0.7-0.1,1-0.4l134.5-87.3c2.4-1.5,4.5-2.4,7.7-2.4h29.5
		c4.5,0,7.6,3,7.6,7.6v56.4c0,6.8-1.5,10.8-7.6,14.4l-35.8,21.5c-0.5,0.3-0.9,0.4-1.2,0.4c-0.4,0-0.8-0.3-0.8-1.6l0-65.9
		c0-0.7-0.2-1.3-0.7-1.3c-0.3,0-0.6,0.1-1,0.4l-98.3,63.8c-2.8,1.8-5,2.3-7.5,2.3H258c-4.5,0-7.6-3-7.6-7.6l0-81.3
		c0-0.6-0.3-1.1-0.7-1.1c-0.3,0-0.6,0.1-1.1,0.4l-64.8,38.9c-0.6,0.4-0.8,0.7-0.8,1c0,0.3,0.1,0.5,0.6,1l46.3,46.3
		c0.6,0.6,1,1.1,1,1.6c0,0.5-0.7,0.8-1.5,0.8h-41.9c-3.3,0-5.8-0.5-7.6-2.3l-28.1-28.1c-0.3-0.3-0.5-0.4-0.8-0.4
		c-0.2,0-0.6,0.1-0.9,0.3l-47,28.2c-2.8,1.7-4.8,2.3-7.6,2.3H52.4c-4.5,0-7.6-3-7.6-7.6V81.2c0-6.8,1.5-10.7,7.6-14.4l36.1-21.7
		c0.4-0.2,0.7-0.3,1-0.3c0.5,0,0.8,0.6,0.8,1.8v74c0,0.8,0.2,1.1,0.7,1.1c0.3,0,0.7-0.2,1.1-0.4L214,48.2c2.9-1.8,4.7-2.3,8-2.3
		h65.6c4.5,0,7.6,3,7.6,7.6V134.7z"/>
	<g>
		<path class="st0" d="M552.4,93.4h5.5l18.2,42.2l18.2-42.2h5.5v50.8H595v-41.8l-18,41.8h-1.9l-18-41.8v41.8h-4.7V93.4z"/>
		<path class="st0" d="M607.4,125.4c0-11.4,6.8-18.7,16.5-18.7c9.8,0,16.5,7.3,16.5,18.7v1.1c0,11.4-6.8,18.7-16.5,18.7
			c-9.8,0-16.5-7.2-16.5-18.7V125.4z M623.9,141.5c7.2,0,11.8-5.5,11.8-14.9v-1.1c0-9.3-4.6-15-11.8-15s-11.8,5.7-11.8,15v1.1
			C612.1,135.9,616.7,141.5,623.9,141.5z"/>
		<path class="st0" d="M647,107.7l11.8,31.6l12-31.6h4.6l-14,36.5h-5.3l-14-36.5H647z"/>
		<path class="st0" d="M677.2,125c0-10.7,6.5-18.3,16-18.3c9.1,0,15.2,6,15.2,18.7v1.9h-26.6c0.3,7.9,4.6,14.1,11.8,14.1
			c6.4,0,10.5-3.2,12.9-5.5v4.9c-2.7,2.5-7.4,4.3-12.9,4.3c-10.3,0-16.4-7.6-16.4-18.7V125z M703.9,123.8
			c-0.2-9.4-4.8-13.3-10.7-13.3c-6,0-10.9,5.1-11.3,13.3H703.9z"/>
		<path class="st0" d="M715.3,107.7h4l0.5,7.5c2.3-4.5,6.6-8.5,12.5-8.5c5.6,0,9.2,3,10.3,8.8c2.5-4.6,6.8-8.8,12.8-8.8
			c6.8,0,10.7,4.4,10.7,12.8v24.7h-4.5v-24.1c0-6.4-1.8-9.7-6.8-9.7c-4.5,0-10.2,5.2-11.8,11v22.7h-4.5v-24.1c0-6.4-1.7-9.7-6.8-9.7
			c-4.5,0-10.2,5.2-11.8,11v22.7h-4.5V107.7z"/>
		<path class="st0" d="M772.6,125c0-10.7,6.5-18.3,16-18.3c9.1,0,15.2,6,15.2,18.7v1.9h-26.6c0.3,7.9,4.6,14.1,11.8,14.1
			c6.4,0,10.5-3.2,12.9-5.5v4.9c-2.7,2.5-7.4,4.3-12.9,4.3c-10.3,0-16.4-7.6-16.4-18.7V125z M799.3,123.8
			c-0.2-9.4-4.8-13.3-10.7-13.3c-6,0-10.9,5.1-11.3,13.3H799.3z"/>
		<path class="st0" d="M810.7,107.7h4l0.5,8.4c2.3-4.6,7.2-9.4,13.7-9.4c7.6,0,11.5,4.7,11.5,13.4v24.1h-4.5v-23.4
			c0-6.7-1.9-10.4-7.6-10.4c-5.5,0-11.5,6.2-13,12.6v21.2h-4.5V107.7z"/>
		<path class="st0" d="M844.6,107.7h8.1V96.6h4.5v11.1h8.1v3.8h-8.1v32.7h-4.5v-32.7h-8.1V107.7z"/>
		<path class="st0" d="M886,107.7h8.1V96.6h4.5v11.1h8.1v3.8h-8.1v32.7H894v-32.7H886V107.7z"/>
		<path class="st0" d="M911.9,93h4.5v22.9c2.3-4.5,7.2-9.2,13.6-9.2c7.6,0,11.5,4.7,11.5,13.4v24.1H937v-23.4
			c0-6.7-1.9-10.4-7.6-10.4c-5.4,0-11.3,5.9-12.9,12.3v21.5h-4.5V93z"/>
		<path class="st0" d="M949.4,128.8c2-3,6-4.4,13.4-5.8l9.8-1.9c0-7.1-3.1-10.7-9.9-10.7c-5.3,0-9.5,2.5-12.4,5.4v-4.6
			c2.6-2.4,7-4.5,12.4-4.5c8.7,0,14.4,4.3,14.4,13.4v24.1h-3.3l-1.1-6.3c-3.2,4.4-8.5,7.3-14.2,7.3c-6.4,0-10.8-3.5-10.8-10.4
			C947.6,132.6,948.1,130.7,949.4,128.8z M959.4,141.5c4.3,0,10.1-2.9,13.2-8.6v-8l-7,1.3c-5,0.9-10.1,1.6-12.2,4.4
			c-0.9,1.2-1.2,2.5-1.2,4.1C952.3,139.3,955.2,141.5,959.4,141.5z"/>
		<path class="st0" d="M981.2,107.7h8.1V96.6h4.5v11.1h8.1v3.8h-8.1v32.7h-4.5v-32.7h-8.1V107.7z"/>
		<path class="st0" d="M1027.2,94.3h4.5v6.5h-4.5V94.3z M1027.2,107.7h4.5v36.5h-4.5V107.7z"/>
		<path class="st0" d="M1040.7,107.7h4l0.5,8.4c2.3-4.6,7.2-9.4,13.7-9.4c7.6,0,11.5,4.7,11.5,13.4v24.1h-4.5v-23.4
			c0-6.7-1.9-10.4-7.6-10.4c-5.5,0-11.5,6.2-13,12.6v21.2h-4.5V107.7z"/>
		<path class="st0" d="M1077.2,135.9c3.3,3.8,6.7,5.6,11.4,5.6c5.3,0,8.9-2.4,8.9-6.4c0-2.7-0.9-4.7-5.6-6.7l-5.5-2.3
			c-5.8-2.5-8.6-5.5-8.6-10c0-4.9,4.3-9.4,12-9.4c4.6,0,8.6,2,11.2,4.1v5.2c-3.5-3.7-7.6-5.6-11.2-5.6c-5.1,0-7.3,2.7-7.3,5.7
			c0,2.6,2,4.1,6.2,5.8l5.3,2.3c5.9,2.5,8.3,5.8,8.3,10.7c0,6.2-5.5,10.3-13.6,10.3c-5.7,0-9-1.9-11.4-4.1V135.9z"/>
		<path class="st0" d="M1108.9,107.7h4l0.4,6.6c2.6-4.3,7.2-7.6,12.3-7.6c9.3,0,15.8,7.6,15.8,19.2c0,11.7-6.6,19.3-15.8,19.3
			c-5.1,0-9.5-3.1-12.2-7.3v21h-4.5V107.7z M1125.2,141.5c6.9,0,11.6-6.2,11.6-15.6c0-9.2-4.7-15.4-11.6-15.4
			c-5.1,0-10,4.6-11.8,10.2v10.6C1115.2,136.9,1120,141.5,1125.2,141.5z"/>
		<path class="st0" d="M1148.4,94.3h4.5v6.5h-4.5V94.3z M1148.4,107.7h4.5v36.5h-4.5V107.7z"/>
		<path class="st0" d="M1161.8,107.7h4l0.4,6.5c2.2-4.5,5.7-7.5,10.9-7.5c1.5,0,3.1,0.3,3.7,0.5v4c-0.9-0.3-2.3-0.6-4-0.6
			c-4.5,0-8.6,3.5-10.4,9v24.5h-4.5V107.7z"/>
		<path class="st0" d="M1182.6,125c0-10.7,6.5-18.3,16-18.3c9.1,0,15.2,6,15.2,18.7v1.9h-26.6c0.3,7.9,4.6,14.1,11.8,14.1
			c6.4,0,10.5-3.2,12.9-5.5v4.9c-2.7,2.5-7.4,4.3-12.9,4.3c-10.3,0-16.4-7.6-16.4-18.7V125z M1209.3,123.8
			c-0.2-9.4-4.8-13.3-10.7-13.3c-6,0-10.9,5.1-11.3,13.3H1209.3z"/>
		<path class="st0" d="M1218.6,135.9c3.3,3.8,6.7,5.6,11.4,5.6c5.3,0,8.9-2.4,8.9-6.4c0-2.7-0.9-4.7-5.6-6.7l-5.5-2.3
			c-5.8-2.5-8.6-5.5-8.6-10c0-4.9,4.3-9.4,12-9.4c4.6,0,8.6,2,11.2,4.1v5.2c-3.5-3.7-7.6-5.6-11.2-5.6c-5.1,0-7.3,2.7-7.3,5.7
			c0,2.6,2,4.1,6.2,5.8l5.3,2.3c5.9,2.5,8.3,5.8,8.3,10.7c0,6.2-5.5,10.3-13.6,10.3c-5.7,0-9-1.9-11.4-4.1V135.9z"/>
		<path class="st0" d="M552.4,93.4h5.5l18.2,42.2l18.2-42.2h5.5v50.8H595v-41.8l-18,41.8h-1.9l-18-41.8v41.8h-4.7V93.4z"/>
	</g>
</g>
</svg>
