<?xml version="1.0" encoding="utf-8"?>
<!-- Generator: Adobe Illustrator 24.3.0, SVG Export Plug-In . SVG Version: 6.00 Build 0)  -->
<svg version="1.1" id="Layer_1" xmlns="http://www.w3.org/2000/svg" xmlns:xlink="http://www.w3.org/1999/xlink" x="0px" y="0px"
	 viewBox="0 0 835.2 407.7" style="enable-background:new 0 0 835.2 407.7;" xml:space="preserve">
<style type="text/css">
	.st0{fill:#05141F;}
	.st1{fill:#FFFFFF;}
</style>
<rect class="st0" width="835.2" height="407.7"/>
<g>
	<g>
		<g>
			<path class="st1" d="M472.8,215.7c0,1.3,0.4,2,1.2,2c0.5,0,1-0.2,1.7-0.6L691.1,77.2c3.8-2.5,7.2-3.8,12.4-3.8h47.4
				c7.3,0,12.1,4.9,12.1,12.1V176c0,10.9-2.4,17.2-12.1,23.1l-57.4,34.5c-0.8,0.5-1.4,0.7-1.9,0.7c-0.7,0-1.3-0.5-1.3-2.5V126.3
				c0-1.1-0.4-2-1.2-2c-0.5,0-1,0.2-1.7,0.6L529.9,227.1c-4.4,2.9-8,3.7-12.1,3.7H413.4c-7.3,0-12.1-4.9-12.1-12.1V88.4
				c0-1-0.4-1.8-1.2-1.8c-0.5,0-1,0.2-1.7,0.6l-103.9,62.4c-1,0.6-1.3,1.1-1.3,1.6c0,0.4,0.2,0.9,0.9,1.6l74.2,74.2
				c1,1,1.7,1.7,1.7,2.5c0,0.9-1.1,1.3-2.4,1.3h-67.1c-5.3,0-9.3-0.8-12.1-3.6l-45-45c-0.4-0.4-0.8-0.7-1.3-0.7
				c-0.4,0-0.9,0.2-1.4,0.5l-75.3,45.2c-4.5,2.7-7.7,3.6-12.2,3.6H83.9c-7.3,0-12.1-4.9-12.1-12.1V130c0-10.9,2.4-17.2,12.1-23
				l57.8-34.7c0.6-0.4,1.1-0.5,1.6-0.5c0.9,0,1.4,0.9,1.4,2.9v118.6c0,1.2,0.3,1.8,1.2,1.8c0.5,0,1.1-0.3,1.7-0.7L342.7,77.1
				c4.7-2.8,7.5-3.6,12.9-3.6h105.1c7.3,0,12.1,4.9,12.1,12.1L472.8,215.7z"/>
		</g>
		<g>
			<path class="st1" d="M71.8,284.3h5.5l18.2,42.2l18.2-42.2h5.5v50.8h-4.7v-41.8l-18,41.8h-1.9l-18-41.8v41.8h-4.7L71.8,284.3
				L71.8,284.3z"/>
			<path class="st1" d="M126.8,316.3c0-11.4,6.8-18.7,16.5-18.7s16.5,7.3,16.5,18.7v1.1c0,11.4-6.8,18.7-16.5,18.7
				s-16.5-7.2-16.5-18.7V316.3z M143.3,332.3c7.2,0,11.8-5.5,11.8-14.9v-1.1c0-9.3-4.6-15-11.8-15s-11.8,5.7-11.8,15v1.1
				C131.5,326.8,136.1,332.3,143.3,332.3z"/>
			<path class="st1" d="M166.5,298.6l11.8,31.6l12-31.6h4.6l-14,36.5h-5.3l-14-36.5H166.5z"/>
			<path class="st1" d="M196.6,315.9c0-10.7,6.5-18.3,16-18.3c9.1,0,15.2,6,15.2,18.7v1.9h-26.6c0.3,7.9,4.6,14.1,11.8,14.1
				c6.4,0,10.5-3.2,12.9-5.5v4.9c-2.7,2.5-7.4,4.3-12.9,4.3c-10.3,0-16.4-7.6-16.4-18.7V315.9z M223.3,314.6
				c-0.2-9.4-4.8-13.3-10.7-13.3c-6,0-10.9,5.1-11.3,13.3H223.3z"/>
			<path class="st1" d="M234.7,298.6h4l0.5,7.5c2.3-4.5,6.6-8.5,12.5-8.5c5.6,0,9.2,3,10.3,8.8c2.5-4.6,6.8-8.8,12.8-8.8
				c6.8,0,10.7,4.4,10.7,12.8v24.7H281V311c0-6.4-1.8-9.7-6.8-9.7c-4.5,0-10.2,5.2-11.8,11V335h-4.5v-24c0-6.4-1.7-9.7-6.8-9.7
				c-4.5,0-10.2,5.2-11.8,11V335h-4.5v-36.4H234.7z"/>
			<path class="st1" d="M292.1,315.9c0-10.7,6.5-18.3,16-18.3c9.1,0,15.2,6,15.2,18.7v1.9h-26.6c0.3,7.9,4.6,14.1,11.8,14.1
				c6.4,0,10.5-3.2,12.9-5.5v4.9c-2.7,2.5-7.4,4.3-12.9,4.3c-10.3,0-16.4-7.6-16.4-18.7V315.9z M318.7,314.6
				c-0.2-9.4-4.8-13.3-10.7-13.3c-6,0-10.9,5.1-11.3,13.3H318.7z"/>
			<path class="st1" d="M330.2,298.6h4l0.5,8.4c2.3-4.6,7.2-9.4,13.7-9.4c7.6,0,11.5,4.7,11.5,13.4v24.1h-4.5v-23.4
				c0-6.7-1.9-10.4-7.6-10.4c-5.5,0-11.5,6.2-13,12.6v21.2h-4.5v-36.5L330.2,298.6L330.2,298.6z"/>
			<path class="st1" d="M364,298.6h8.1v-11.1h4.5v11.1h8.1v3.8h-8.1v32.7h-4.5v-32.7H364V298.6z"/>
			<path class="st1" d="M405.4,298.6h8.1v-11.1h4.5v11.1h8.1v3.8H418v32.7h-4.5v-32.7h-8.1V298.6z"/>
			<path class="st1" d="M431.3,283.9h4.5v22.9c2.3-4.5,7.2-9.2,13.6-9.2c7.6,0,11.5,4.7,11.5,13.4v24.1h-4.5v-23.4
				c0-6.7-1.9-10.4-7.6-10.4c-5.4,0-11.3,5.9-12.9,12.3v21.5h-4.5v-51.2L431.3,283.9L431.3,283.9z"/>
			<path class="st1" d="M468.8,319.7c2-3,6-4.4,13.4-5.8l9.8-1.9c0-7.1-3.1-10.7-9.9-10.7c-5.3,0-9.5,2.5-12.4,5.4v-4.6
				c2.6-2.4,7-4.5,12.4-4.5c8.7,0,14.4,4.3,14.4,13.4v24.1h-3.3l-1.1-6.3c-3.2,4.4-8.5,7.3-14.2,7.3c-6.4,0-10.8-3.5-10.8-10.4
				C467.1,323.5,467.5,321.6,468.8,319.7z M478.8,332.3c4.3,0,10.1-2.9,13.2-8.6v-8l-7,1.3c-5,0.9-10.1,1.6-12.2,4.4
				c-0.9,1.2-1.2,2.5-1.2,4.1C471.7,330.2,474.6,332.3,478.8,332.3z"/>
			<path class="st1" d="M500.6,298.6h8.1v-11.1h4.5v11.1h8.1v3.8h-8.1v32.7h-4.5v-32.7h-8.1V298.6z"/>
			<path class="st1" d="M546.7,285.2h4.5v6.5h-4.5V285.2z M546.7,298.6h4.5v36.5h-4.5V298.6z"/>
			<path class="st1" d="M560.1,298.6h4l0.5,8.4c2.3-4.6,7.2-9.4,13.7-9.4c7.6,0,11.5,4.7,11.5,13.4v24.1h-4.5v-23.4
				c0-6.7-1.9-10.4-7.6-10.4c-5.5,0-11.5,6.2-13,12.6v21.2h-4.5v-36.5L560.1,298.6L560.1,298.6z"/>
			<path class="st1" d="M596.7,326.7c3.3,3.8,6.7,5.6,11.4,5.6c5.3,0,8.9-2.4,8.9-6.4c0-2.7-0.9-4.7-5.6-6.7l-5.5-2.3
				c-5.8-2.5-8.6-5.5-8.6-10c0-4.9,4.3-9.4,12-9.4c4.6,0,8.6,2,11.2,4.1v5.2c-3.5-3.7-7.6-5.6-11.2-5.6c-5.1,0-7.3,2.7-7.3,5.7
				c0,2.6,2,4.1,6.2,5.8l5.3,2.3c5.9,2.5,8.3,5.8,8.3,10.7c0,6.2-5.5,10.3-13.6,10.3c-5.7,0-9-1.9-11.4-4.1v-5.2H596.7z"/>
			<path class="st1" d="M628.3,298.6h4l0.4,6.6c2.6-4.3,7.2-7.6,12.3-7.6c9.3,0,15.8,7.6,15.8,19.2c0,11.7-6.6,19.3-15.8,19.3
				c-5.1,0-9.5-3.1-12.2-7.3v21h-4.5V298.6z M644.6,332.3c6.9,0,11.6-6.2,11.6-15.6c0-9.2-4.7-15.4-11.6-15.4
				c-5.1,0-10,4.6-11.8,10.2v10.6C634.6,327.7,639.5,332.3,644.6,332.3z"/>
			<path class="st1" d="M667.8,285.2h4.5v6.5h-4.5V285.2z M667.8,298.6h4.5v36.5h-4.5V298.6z"/>
			<path class="st1" d="M681.2,298.6h4l0.4,6.5c2.2-4.5,5.7-7.5,10.9-7.5c1.5,0,3.1,0.3,3.7,0.5v4c-0.9-0.3-2.3-0.6-4-0.6
				c-4.5,0-8.6,3.5-10.4,9V335h-4.5v-36.4H681.2z"/>
			<path class="st1" d="M702,315.9c0-10.7,6.5-18.3,16-18.3c9.1,0,15.2,6,15.2,18.7v1.9h-26.6c0.3,7.9,4.6,14.1,11.8,14.1
				c6.4,0,10.5-3.2,12.9-5.5v4.9c-2.7,2.5-7.4,4.3-12.9,4.3c-10.3,0-16.4-7.6-16.4-18.7V315.9z M728.7,314.6
				c-0.2-9.4-4.8-13.3-10.7-13.3c-6,0-10.9,5.1-11.3,13.3H728.7z"/>
			<path class="st1" d="M738.1,326.7c3.3,3.8,6.7,5.6,11.4,5.6c5.3,0,8.9-2.4,8.9-6.4c0-2.7-0.9-4.7-5.6-6.7l-5.5-2.3
				c-5.8-2.5-8.6-5.5-8.6-10c0-4.9,4.3-9.4,12-9.4c4.6,0,8.6,2,11.2,4.1v5.2c-3.5-3.7-7.6-5.6-11.2-5.6c-5.1,0-7.3,2.7-7.3,5.7
				c0,2.6,2,4.1,6.2,5.8l5.3,2.3c5.9,2.5,8.3,5.8,8.3,10.7c0,6.2-5.5,10.3-13.6,10.3c-5.7,0-9-1.9-11.4-4.1v-5.2H738.1z"/>
		</g>
	</g>
</g>
</svg>
